<svg width="24" height="24" viewBox="0 0 24 24" fill="none" xmlns="http://www.w3.org/2000/svg">
<path d="M13.38 18H18.38C18.6452 18 18.8996 17.8947 19.0871 17.7071C19.2746 17.5196 19.38 17.2652 19.38 17V14.67H21.97V9.34001H19.38V7.01001C19.38 6.74479 19.2746 6.49044 19.0871 6.3029C18.8996 6.11537 18.6452 6.01001 18.38 6.01001H15.38" stroke="#000668" stroke-width="2" stroke-linecap="square"/>
<path d="M7.01999 6.01001H3.01999C2.75477 6.01001 2.5004 6.11537 2.31287 6.3029C2.12533 6.49044 2.01999 6.74479 2.01999 7.01001V17.01C2.01999 17.2752 2.12533 17.5296 2.31287 17.7171C2.5004 17.9047 2.75477 18.01 3.01999 18.01H5.01999" stroke="#000668" stroke-width="2" stroke-linecap="square"/>
<path d="M11.89 6.01001L7.62 12H12.89L8.62 18" stroke="#6574FF" stroke-width="2" stroke-miterlimit="10"/>
</svg>
