<svg width="24" height="24" viewBox="0 0 24 24" fill="none" xmlns="http://www.w3.org/2000/svg">
<path d="M16.8095 7.60214L15.7938 5H8.14524L7.12949 7.60214H3.01574C2.74635 7.60214 2.48801 7.708 2.29752 7.89641C2.10703 8.08483 2 8.34037 2 8.60683V18.9953C2 19.2618 2.10703 19.5173 2.29752 19.7057C2.48801 19.8941 2.74635 20 3.01574 20H20.9843C21.2536 20 21.512 19.8941 21.7025 19.7057C21.893 19.5173 22 19.2618 22 18.9953V8.60683C22 8.34037 21.893 8.08483 21.7025 7.89641C21.512 7.708 21.2536 7.60214 20.9843 7.60214H16.8095Z" stroke="#000668" stroke-width="2" stroke-linecap="square"/>
<path d="M12 16C13.6568 16 15 14.6569 15 13C15 11.3431 13.6568 10 12 10C10.3431 10 9 11.3431 9 13C9 14.6569 10.3431 16 12 16Z" stroke="#6574FF" stroke-width="2" stroke-linecap="square"/>
<path d="M11 12H11.01" stroke="#6574FF" stroke-width="2" stroke-linecap="round" stroke-linejoin="round"/>
</svg>
