<svg width="24" height="24" viewBox="0 0 24 24" fill="none" xmlns="http://www.w3.org/2000/svg">
<path d="M22.2 8.03C20.8606 6.68842 19.2699 5.6241 17.5188 4.89792C15.7678 4.17174 13.8907 3.79796 11.995 3.79796C10.0993 3.79796 8.2222 4.17174 6.47112 4.89792C4.72003 5.6241 3.12931 6.68842 1.78998 8.03" stroke="#000668" stroke-width="2" stroke-miterlimit="10"/>
<path d="M19.21 11.02C18.2627 10.0721 17.138 9.32013 15.9 8.80708C14.662 8.29404 13.3351 8.02998 11.995 8.02998C10.6549 8.02998 9.32796 8.29404 8.08998 8.80708C6.852 9.32013 5.72725 10.0721 4.78 11.02" stroke="#000668" stroke-width="2" stroke-miterlimit="10"/>
<path d="M7.70001 14.07C8.26377 13.5055 8.93328 13.0577 9.67026 12.7521C10.4072 12.4466 11.1972 12.2893 11.995 12.2893C12.7928 12.2893 13.5828 12.4466 14.3198 12.7521C15.0567 13.0577 15.7263 13.5055 16.29 14.07" stroke="#000668" stroke-width="2" stroke-miterlimit="10"/>
<path d="M12 20.28C13.0052 20.28 13.82 19.4651 13.82 18.46C13.82 17.4548 13.0052 16.64 12 16.64C10.9948 16.64 10.18 17.4548 10.18 18.46C10.18 19.4651 10.9948 20.28 12 20.28Z" stroke="#6574FF" stroke-width="2" stroke-miterlimit="10"/>
</svg>
